<?xml version="1.0" encoding="UTF-8"?><svg xmlns="http://www.w3.org/2000/svg" viewBox="0 0 2200 2200"><g id="a"/><g id="b"><g><g><circle cx="1100" cy="1100" r="778.75" fill="#ffcc3e"/><circle cx="1100" cy="1100" r="617" fill="#ffe357"/><circle cx="1100" cy="1100" r="596.87" fill="#e59638"/><path d="M1696.87,1100c0,7.73-.15,15.42-.43,23.07-12.14-318.94-274.53-573.78-596.44-573.78s-584.3,254.84-596.44,573.78c-.29-7.65-.43-15.34-.43-23.07,0-329.64,267.23-596.87,596.87-596.87s596.87,267.23,596.87,596.87Z" fill="#cc8232"/><path d="M1878.75,1100c0,424.95-340.37,770.4-763.36,778.59-5.11,.11-10.25,.16-15.39,.16-25.16,0-50.03-1.19-74.58-3.53-34.61-3.29-68.56-8.84-101.7-16.51-91.33-21.13-176.5-58.33-252.38-108.46-18.93-12.5-37.28-25.8-55.01-39.87h0c-61.47-48.77-115.4-106.62-159.76-171.55-16.16-23.64-31.05-48.22-44.56-73.65-12.6-23.69-24.01-48.11-34.16-73.18-10.99-27.13-20.49-55.03-28.4-83.59-13.99-50.46-23.02-102.99-26.53-157.01-1.11-17-1.67-34.14-1.67-51.42,0-8.19,.13-16.34,.38-24.47,.75,24.19,2.59,48.09,5.5,71.67,6.36,51.66,17.78,101.77,33.75,149.79,9.12,27.46,19.74,54.23,31.76,80.23,11.14,24.14,23.5,47.62,36.98,70.36,14.52,24.5,30.36,48.15,47.39,70.82,47.14,62.74,103.53,118.13,167.16,164.13,18.48,13.37,37.58,25.94,57.22,37.67,79.57,47.51,168.33,81.23,262.98,97.85,34.92,6.12,70.63,9.93,106.98,11.24,9.51,.35,19.06,.53,28.65,.53,22.57,0,44.92-.96,67.02-2.85,390.7-33.29,699.12-355.07,711.35-751.43,.25,8.12,.38,16.28,.38,24.47Z" fill="#e59638"/></g><g><g><path d="M867.36,1167.56c-16.43,4.35-32.34,10.06-47.54,16.94-36.25,16.46-68.72,39.77-95.79,68.29-5.22-25.75-7.95-52.38-7.95-79.63,0-132.01,64.19-248.98,163.05-321.43-3.94,5.41-93.67,132.26-11.75,315.83h-.02Z" fill="#cc8232"/><path d="M1317.19,830.11c-89.1,16.9-164.53,72.38-208.25,148.39l-1.4,2.39c-85.85-144.29-224.49-129.78-228.2-129.34,65.93-48.28,147.21-76.8,235.16-76.8,74.03,0,143.31,20.19,202.69,55.36h0Z" fill="#cc8232"/><path d="M1317.19,1444.5l-593.18-191.71c27.07-28.51,59.56-51.82,95.79-68.29,15.22-6.89,31.13-12.59,47.54-16.94l449.83,276.94h.02Z" fill="#cc8232"/><path d="M1317.19,830.11v614.39l-209.65-463.6c.44-.81,.93-1.62,1.4-2.39,43.72-76.02,119.15-131.48,208.25-148.39v-.02Z" fill="#cc8232"/><path d="M1317.19,1444.5l-449.83-276.94c3.57-8.7,7.55-17.16,11.93-25.41,44.46-84.79,127.44-146.15,225.74-160.87,.81-.12,1.65-.25,2.51-.37l209.65,463.6Z" fill="#cc8232"/><path d="M1107.54,980.9l-2.51,.37c-98.3,14.73-181.28,76.09-225.74,160.87-4.38,8.26-8.36,16.72-11.93,25.41-81.92-183.57,7.8-310.41,11.75-315.83,.03-.03,.03-.07,.03-.07l.07-.07s.07-.03,.12-.03c3.72-.44,142.35-14.95,228.2,129.34h.02Z" fill="#cc8232"/></g><path d="M897.17,1148.32c-16.43,4.35-32.34,10.06-47.54,16.94-36.25,16.46-68.72,39.77-95.79,68.29-5.22-25.75-7.95-52.38-7.95-79.63,0-132.01,64.19-248.98,163.05-321.43-3.94,5.41-93.67,132.26-11.75,315.83h-.02Z" fill="#ffc32c"/><path d="M1347,810.86c-89.1,16.9-164.53,72.38-208.25,148.39l-1.4,2.39c-85.85-144.29-224.49-129.78-228.2-129.34,65.93-48.28,147.21-76.8,235.16-76.8,74.03,0,143.31,20.19,202.69,55.36h0Z" fill="#ffe357"/><path d="M1347,1425.25l-593.18-191.71c27.07-28.51,59.56-51.82,95.79-68.29,15.22-6.89,31.13-12.59,47.54-16.94l449.83,276.94h.02Z" fill="#ffcc3e"/><path d="M1347,810.86v614.39l-209.65-463.6c.44-.81,.93-1.62,1.4-2.39,43.72-76.02,119.15-131.48,208.25-148.39v-.02Z" fill="#ffeea9"/><path d="M1347,1425.25l-449.83-276.94c3.57-8.7,7.55-17.16,11.93-25.41,44.46-84.79,127.44-146.15,225.74-160.87,.81-.12,1.65-.25,2.51-.37l209.65,463.6Z" fill="#ffe357"/><path d="M1137.35,961.66l-2.51,.37c-98.3,14.73-181.28,76.09-225.74,160.87-4.38,8.26-8.36,16.72-11.93,25.41-81.92-183.57,7.8-310.41,11.75-315.83,.03-.03,.03-.07,.03-.07l.07-.07s.07-.03,.12-.03c3.72-.44,142.35-14.95,228.2,129.34h.02Z" fill="#ffcc3e"/></g></g></g></svg>