<?xml version="1.0" encoding="UTF-8"?>
<svg id="a" xmlns="http://www.w3.org/2000/svg" viewBox="0 0 400 400">
    <path
        d="M111.43,234.38c-9.75,2.58-19.19,5.97-28.21,10.05-21.51,9.77-40.78,23.6-56.84,40.52-3.1-15.28-4.72-31.08-4.72-47.25,0-78.33,38.09-147.74,96.75-190.73-2.34,3.21-55.58,78.48-6.97,187.41Z"
        fill="#2875e5" />
    <path
        d="M378.35,34.14c-52.87,10.03-97.63,42.95-123.57,88.05l-.83,1.42C203.01,37.99,120.74,46.6,118.54,46.86,157.66,18.21,205.89,1.29,258.08,1.29c43.93,0,85.04,11.98,120.27,32.85Z"
        fill="#61a1ff" />
    <path
        d="M378.35,398.71L26.37,284.95c16.06-16.92,35.34-30.75,56.84-40.52,9.03-4.09,18.47-7.47,28.21-10.05l266.92,164.33Z"
        fill="#cbd1d8" />
    <path
        d="M378.35,34.14V398.71L253.95,123.62c.26-.48,.55-.96,.83-1.42,25.94-45.11,70.7-78.02,123.57-88.05Z"
        fill="#f7f7f7" />
    <path
        d="M378.35,398.71L111.43,234.38c2.12-5.16,4.48-10.18,7.08-15.08,26.38-50.31,75.62-86.72,133.95-95.46,.48-.07,.98-.15,1.49-.22l124.4,275.09Z"
        fill="#dfe3e8" />
    <path
        d="M253.95,123.62l-1.49,.22c-58.33,8.74-107.57,45.15-133.95,95.46-2.6,4.9-4.96,9.92-7.08,15.08-48.61-108.93,4.63-184.19,6.97-187.41,.02-.02,.02-.04,.02-.04l.04-.04s.04-.02,.07-.02c2.21-.26,84.47-8.87,135.41,76.75Z"
        fill="#3e83ff" />
    <path d="M118.54,46.86s-.04,0-.07,.02l.02-.02h.04Z" fill="#fff" />
</svg>