<?xml version="1.0" standalone="no"?>
<!DOCTYPE svg PUBLIC "-//W3C//DTD SVG 20010904//EN"
 "http://www.w3.org/TR/2001/REC-SVG-20010904/DTD/svg10.dtd">
<svg version="1.0" xmlns="http://www.w3.org/2000/svg"
 width="1024.000000pt" height="1024.000000pt" viewBox="0 0 1024.000000 1024.000000"
 preserveAspectRatio="xMidYMid meet">

<g transform="translate(0.000000,1024.000000) scale(0.100000,-0.100000)"
fill="#000000" stroke="none">
<path d="M2690 6493 c-20 -26 -21 -36 -18 -245 3 -246 4 -247 79 -255 35 -4
50 0 72 17 l27 21 0 223 c0 220 0 223 -23 244 -17 16 -36 22 -69 22 -39 0 -50
-5 -68 -27z m93 10 c-7 -2 -21 -2 -30 0 -10 3 -4 5 12 5 17 0 24 -2 18 -5z
m-76 -21 c-15 -16 -17 -49 -19 -223 l-3 -204 -3 200 c-3 197 4 245 31 245 6 0
3 -8 -6 -18z m121 6 c9 -9 11 -58 10 -172 l-2 -161 -3 159 c-3 137 -6 161 -21
172 -9 7 -12 14 -6 14 5 0 15 -5 22 -12z m9 -390 c-2 -13 -4 -5 -4 17 -1 22 1
32 4 23 2 -10 2 -28 0 -40z m0 -50 c-3 -8 -6 -5 -6 6 -1 11 2 17 5 13 3 -3 4
-12 1 -19z m-126 -25 c13 -16 12 -17 -3 -4 -10 7 -18 15 -18 17 0 8 8 3 21
-13z m114 -3 c-3 -5 -12 -10 -18 -10 -7 0 -6 4 3 10 19 12 23 12 15 0z"/>
<path d="M3384 6226 c-48 -16 -104 -44 -104 -52 0 -4 7 -3 16 0 9 3 12 2 9 -5
-4 -5 -15 -7 -24 -4 -19 6 -111 -67 -111 -88 0 -6 17 5 38 24 l37 34 -34 -37
c-19 -21 -37 -35 -41 -33 -12 8 -32 -23 -24 -36 4 -8 3 -9 -4 -5 -25 15 -82
-144 -82 -229 l0 -51 -123 -122 c-108 -106 -152 -144 -133 -114 7 12 -250 265
-262 259 -4 -4 -53 40 -108 96 l-99 102 105 -100 c91 -87 95 -90 30 -22 -112
117 -191 192 -201 190 -5 -2 -8 3 -6 10 1 6 -4 11 -10 10 -7 -2 -12 0 -12 5 4
21 -3 34 -15 29 -8 -3 -26 9 -42 26 l-29 32 35 -30 c19 -16 4 3 -35 43 -55 57
-75 72 -95 70 -14 -2 -25 -8 -25 -15 0 -7 -7 -18 -15 -25 -12 -11 -12 -11 -1
5 7 9 9 17 4 17 -20 0 -173 -168 -173 -190 0 -24 127 -163 141 -155 4 3 11 0
15 -6 5 -8 3 -9 -7 -4 -8 4 6 -13 30 -38 24 -25 49 -43 54 -40 6 3 7 2 4 -4
-3 -5 19 -34 50 -64 31 -30 50 -45 42 -34 -13 18 -13 19 3 7 9 -8 14 -20 12
-27 -5 -13 29 -39 38 -30 3 3 15 -7 29 -22 13 -14 18 -23 12 -19 -7 4 -13 3
-13 -3 0 -14 35 -32 45 -23 5 4 5 2 2 -4 -6 -11 40 -62 50 -56 2 2 8 0 11 -4
4 -4 0 -3 -8 1 -10 5 -8 1 4 -13 21 -24 32 -29 20 -10 -4 7 -3 8 5 4 6 -4 9
-11 6 -15 -7 -12 30 -43 40 -34 4 5 5 3 1 -4 -9 -16 129 -157 144 -148 9 6 9
2 1 -13 -6 -12 -16 -24 -21 -27 -6 -4 -8 -10 -5 -15 3 -5 0 -12 -6 -16 -8 -5
-10 -3 -4 7 4 8 -20 -13 -54 -46 -60 -58 -72 -73 -49 -59 7 4 8 3 4 -5 -4 -6
-11 -9 -15 -6 -8 5 -39 -24 -40 -37 -1 -5 -3 -7 -6 -5 -7 3 -435 -426 -435
-437 0 -5 12 1 28 15 18 15 15 11 -7 -13 -19 -21 -37 -35 -40 -33 -9 9 -81
-69 -81 -88 0 -10 4 -15 10 -12 6 4 7 -1 3 -10 -4 -12 25 -47 103 -126 60 -60
114 -107 121 -105 7 3 15 0 19 -6 5 -7 2 -8 -7 -3 -12 8 -12 6 0 -8 8 -10 27
-17 46 -17 19 0 38 7 46 17 12 14 12 16 -1 9 -8 -5 16 23 55 63 38 39 72 71
74 71 3 0 -24 -30 -59 -66 -36 -37 -60 -65 -55 -63 6 2 42 37 80 78 39 41 64
71 56 66 -10 -5 -12 -4 -7 4 4 6 11 9 15 6 12 -7 43 30 34 39 -5 4 -1 6 7 4 8
-1 14 3 12 10 -1 6 4 11 10 10 7 -2 12 3 10 10 -1 8 2 11 7 8 9 -6 37 22 34
33 -1 3 1 8 4 11 4 3 3 -2 -2 -10 -4 -8 49 41 118 109 69 69 124 128 121 133
-3 5 -2 8 3 7 20 -4 27 2 13 12 -13 9 -13 10 1 6 17 -6 114 84 104 96 -3 4 -2
5 2 2 4 -3 19 7 35 22 l28 27 98 -96 c139 -138 184 -178 194 -172 4 3 5 -3 1
-12 -5 -14 -3 -16 11 -11 9 4 15 3 12 -1 -6 -11 68 -84 77 -77 4 3 5 2 2 -2
-8 -10 127 -143 138 -136 6 3 7 2 4 -4 -6 -9 57 -78 71 -78 4 0 6 -3 5 -7 -1
-3 18 -24 42 -47 71 -66 89 -61 208 58 85 85 98 103 95 127 -2 16 -8 28 -14
27 -7 -1 -20 8 -30 20 l-19 22 23 -19 c12 -11 22 -15 22 -10 0 15 -317 327
-335 330 -9 1 -20 6 -23 10 -4 4 2 4 13 0 11 -4 -16 29 -59 73 -43 43 -84 78
-90 77 -6 -2 -7 -1 -2 2 4 2 -32 44 -80 93 l-89 89 103 103 c56 57 100 106 96
109 -3 4 14 3 38 0 23 -4 88 -7 144 -7 93 0 105 2 160 31 32 17 58 36 56 43
-1 7 2 9 9 6 14 -9 112 94 105 111 -3 8 0 13 6 11 7 -1 23 25 37 58 40 99 31
275 -16 275 -19 0 -124 -100 -117 -111 3 -5 -3 -6 -12 -2 -13 5 -16 3 -11 -10
3 -9 -1 -21 -11 -29 -15 -12 -16 -11 -3 5 8 10 9 17 3 17 -6 0 -15 -6 -19 -13
-24 -37 -86 -77 -119 -77 -46 0 -69 12 -127 69 -78 74 -92 114 -60 174 9 18
17 35 18 39 0 3 4 10 9 15 5 5 6 3 2 -4 -20 -35 19 -4 102 81 53 54 92 102 92
113 0 12 -11 25 -27 33 -40 19 -189 22 -239 6z m144 -3 c-15 -2 -42 -2 -60 0
-18 2 -6 4 27 4 33 0 48 -2 33 -4z m-1402 -45 l29 -33 -32 29 c-18 17 -33 31
-33 33 0 8 8 1 36 -29z m1465 -61 l-24 -22 19 27 c10 14 21 24 23 22 3 -3 -6
-15 -18 -27z m-51 -41 c0 -2 -8 -10 -17 -17 -16 -13 -17 -12 -4 4 13 16 21 21
21 13z m-1225 -86 c10 -11 16 -20 13 -20 -3 0 -13 9 -23 20 -10 11 -16 20 -13
20 3 0 13 -9 23 -20z m-431 -6 c3 -8 2 -12 -4 -9 -6 3 -10 10 -10 16 0 14 7
11 14 -7z m1227 -31 c-12 -20 -14 -14 -5 12 4 9 9 14 11 11 3 -2 0 -13 -6 -23z
m-1175 -25 l29 -33 -32 29 c-18 17 -33 31 -33 33 0 8 8 1 36 -29z m1461 -60
c-3 -8 -6 -5 -6 6 -1 11 2 17 5 13 3 -3 4 -12 1 -19z m483 18 c0 -2 -8 -10
-17 -17 -16 -13 -17 -12 -4 4 13 16 21 21 21 13z m58 -86 c0 -22 -1 -22 -8 5
-4 17 -8 41 -8 55 0 22 1 22 8 -5 4 -16 8 -41 8 -55z m-1893 20 c10 -11 16
-20 13 -20 -3 0 -13 9 -23 20 -10 11 -16 20 -13 20 3 0 13 -9 23 -20z m1032
-27 c-3 -10 -5 -4 -5 12 0 17 2 24 5 18 2 -7 2 -21 0 -30z m384 -20 c13 -16
12 -17 -3 -4 -10 7 -18 15 -18 17 0 8 8 3 21 -13z m-1340 -30 c13 -16 12 -17
-3 -4 -10 7 -18 15 -18 17 0 8 8 3 21 -13z m1810 -19 c-5 -16 -10 -21 -10 -12
-1 18 10 51 15 45 2 -1 -1 -16 -5 -33z m-217 5 c-25 -28 -68 -49 -96 -48 -19
1 -18 2 7 8 38 9 68 26 85 45 7 9 15 16 18 16 3 0 -3 -9 -14 -21z m-1124 -14
c13 -14 21 -25 18 -25 -2 0 -15 11 -28 25 -13 14 -21 25 -18 25 2 0 15 -11 28
-25z m470 2 c0 -2 -10 -12 -22 -23 l-23 -19 19 23 c18 21 26 27 26 19z m-419
-54 c13 -16 12 -17 -3 -4 -10 7 -18 15 -18 17 0 8 8 3 21 -13z m44 -43 c10
-11 16 -20 13 -20 -3 0 -13 9 -23 20 -10 11 -16 20 -13 20 3 0 13 -9 23 -20z
m285 7 c0 -1 -26 -27 -57 -57 l-58 -55 55 58 c50 53 60 62 60 54z m473 -224
c-7 -2 -19 -2 -25 0 -7 3 -2 5 12 5 14 0 19 -2 13 -5z m-913 -216 c0 -2 -17
-19 -37 -38 l-38 -34 34 38 c33 34 41 42 41 34z m851 -244 c13 -16 12 -17 -3
-4 -17 13 -22 21 -14 21 2 0 10 -8 17 -17z m-366 -113 c10 -11 16 -20 13 -20
-3 0 -13 9 -23 20 -10 11 -16 20 -13 20 3 0 13 -9 23 -20z m60 -60 c10 -11 16
-20 13 -20 -3 0 -13 9 -23 20 -10 11 -16 20 -13 20 3 0 13 -9 23 -20z m476 3
c13 -16 12 -17 -3 -4 -17 13 -22 21 -14 21 2 0 10 -8 17 -17z m94 -93 c10 -11
16 -20 13 -20 -3 0 -13 9 -23 20 -10 11 -16 20 -13 20 3 0 13 -9 23 -20z m46
-47 c13 -16 12 -17 -3 -4 -17 13 -22 21 -14 21 2 0 10 -8 17 -17z m-1111 -6
c0 -2 -15 -16 -32 -33 l-33 -29 29 33 c28 30 36 37 36 29z m671 -34 c13 -16
12 -17 -3 -4 -17 13 -22 21 -14 21 2 0 10 -8 17 -17z m-758 -48 c-3 -9 -8 -14
-10 -11 -3 3 -2 9 2 15 9 16 15 13 8 -4z m-620 -30 c-3 -9 -8 -14 -10 -11 -3
3 -2 9 2 15 9 16 15 13 8 -4z m1948 -98 c-10 -9 -11 -8 -5 6 3 10 9 15 12 12
3 -3 0 -11 -7 -18z m-72 -73 c-18 -20 -43 -40 -53 -46 -11 -6 0 10 25 34 24
25 48 46 53 46 6 1 -6 -14 -25 -34z m-89 -79 c-7 -8 -24 -14 -39 -14 l-26 2
25 4 c14 3 29 9 35 14 15 15 19 10 5 -6z"/>
<path d="M7030 5935 c0 -15 44 -63 53 -58 6 3 7 1 3 -5 -8 -13 63 -124 75
-117 4 3 11 0 15 -6 4 -8 3 -9 -4 -5 -18 11 -15 -3 9 -40 11 -19 25 -32 29
-29 5 3 12 0 16 -6 4 -8 3 -9 -4 -5 -18 11 -14 -1 15 -45 19 -29 29 -36 35
-27 5 9 7 5 6 -12 -2 -13 2 -25 9 -25 6 0 15 -4 20 -9 5 -5 3 -6 -4 -2 -16 9
-16 1 -2 -25 5 -11 15 -16 21 -13 7 4 8 3 4 -4 -8 -13 43 -94 55 -87 4 3 11 0
15 -6 5 -8 3 -9 -6 -4 -8 5 -11 3 -8 -6 3 -8 11 -13 17 -11 7 1 10 -2 6 -8 -4
-6 2 -25 13 -43 23 -38 24 -92 2 -92 -8 0 -15 -8 -15 -17 0 -9 -4 -20 -9 -25
-5 -5 -6 -2 -2 7 4 8 -2 4 -13 -10 -23 -27 -28 -45 -9 -34 7 4 8 3 4 -5 -4 -6
-11 -9 -15 -6 -7 4 -161 -216 -161 -231 0 -3 5 -2 12 2 7 4 8 3 4 -5 -4 -6
-11 -9 -15 -6 -5 2 -20 -13 -35 -35 -28 -43 -32 -55 -14 -44 7 4 8 3 4 -5 -4
-6 -11 -9 -16 -6 -4 3 -15 -6 -24 -20 -18 -27 -22 -49 -5 -25 9 13 10 13 6 0
-2 -8 -10 -15 -18 -15 -8 0 -13 -8 -13 -18 1 -9 -2 -15 -6 -12 -11 7 -42 -43
-35 -56 4 -5 1 -8 -6 -7 -6 2 -14 -3 -16 -9 -4 -10 31 -13 151 -13 103 0 156
4 156 11 0 5 -5 7 -12 3 -7 -4 -8 -3 -4 5 4 6 11 9 16 6 8 -5 114 154 107 162
-3 2 -16 -16 -31 -41 -14 -25 -31 -48 -37 -51 -5 -4 6 17 25 47 19 29 39 52
45 51 5 -2 23 20 40 47 34 55 37 65 19 54 -8 -4 -10 -3 -5 2 5 5 14 9 20 9 7
0 11 9 10 20 -1 11 7 31 19 45 l20 25 -17 -28 c-9 -16 -15 -31 -12 -33 5 -5
47 58 47 70 0 4 -6 4 -12 0 -8 -4 -10 -3 -5 2 5 5 12 9 15 9 4 1 17 6 29 13
16 9 24 9 29 0 4 -7 3 -8 -4 -4 -7 4 -12 4 -12 -1 0 -15 19 -38 31 -38 6 0 18
-11 27 -25 l14 -25 -21 25 c-24 30 -28 20 -5 -15 9 -14 20 -23 24 -20 5 3 12
0 16 -6 5 -8 3 -9 -6 -4 -8 5 -11 3 -8 -6 3 -8 11 -13 17 -11 7 1 10 -2 6 -7
-7 -13 54 -113 65 -106 5 3 12 0 16 -6 4 -8 3 -9 -4 -5 -16 10 -15 0 4 -29 9
-14 20 -23 24 -20 5 3 12 0 16 -6 5 -8 3 -9 -6 -4 -8 5 -11 3 -8 -6 3 -8 10
-14 15 -14 6 0 15 -4 20 -9 5 -5 3 -6 -4 -2 -7 4 -13 3 -13 -3 0 -10 19 -26
32 -26 3 0 10 -4 15 -9 5 -5 3 -6 -4 -2 -17 9 -16 -4 1 -26 12 -16 32 -18 165
-18 l152 0 -26 38 c-14 20 -30 37 -36 37 -7 0 -18 11 -27 25 l-14 25 21 -25
c43 -52 18 -4 -55 106 -42 62 -80 111 -85 109 -4 -3 -11 0 -15 6 -5 8 -3 9 6
4 8 -5 11 -3 8 6 -3 8 -11 13 -17 11 -7 -1 -10 2 -6 8 8 13 -33 82 -45 75 -4
-3 -7 3 -6 13 0 9 -5 16 -12 14 -8 -1 -11 2 -7 7 6 12 -25 65 -33 56 -3 -3 3
-15 14 -27 l19 -23 -23 19 c-13 11 -20 26 -17 34 5 15 -53 117 -62 108 -3 -3
4 -17 14 -33 29 -41 38 -62 15 -34 -31 38 -57 85 -42 76 10 -6 12 -4 7 8 -3 8
1 21 9 28 8 7 13 18 10 25 -3 8 0 13 6 11 6 -1 13 4 16 12 3 9 0 11 -9 6 -8
-5 -11 -4 -6 1 5 5 14 9 20 9 5 0 12 6 15 14 3 9 0 11 -8 6 -9 -5 -11 -4 -6 4
4 6 11 9 16 6 12 -7 42 44 34 58 -4 7 -4 9 1 5 4 -4 14 -3 22 3 16 14 18 33 1
23 -7 -4 -8 -3 -4 5 4 6 11 9 16 6 11 -7 52 64 44 76 -3 5 0 8 7 7 7 -2 14 6
15 18 0 11 9 32 19 47 26 40 30 33 5 -8 -30 -48 -19 -44 14 5 29 44 32 55 14
44 -8 -4 -10 -3 -5 2 5 5 14 9 20 9 7 0 11 8 11 18 -1 9 2 14 7 12 4 -3 20 12
34 34 27 45 31 56 13 45 -7 -4 -8 -3 -4 5 4 6 11 9 16 6 7 -4 70 83 70 98 0 4
-65 7 -144 7 -120 0 -147 -3 -161 -16 -9 -9 -14 -23 -11 -31 3 -8 2 -12 -3 -9
-12 8 -42 -40 -35 -57 5 -13 -23 -45 -35 -39 -3 2 -7 -2 -10 -9 -2 -8 1 -9 10
-4 8 5 11 4 6 -1 -5 -5 -14 -9 -20 -9 -5 0 -12 -6 -15 -14 -3 -9 0 -11 8 -6 9
5 11 4 6 -4 -4 -6 -11 -9 -16 -6 -4 3 -15 -6 -24 -20 -23 -35 -19 -45 5 -15
l21 25 -14 -25 c-9 -14 -22 -25 -29 -25 -8 0 -13 -8 -13 -17 1 -10 -2 -16 -7
-15 -5 1 -26 -26 -47 -61 -33 -53 -41 -60 -52 -47 -7 8 -17 12 -23 8 -6 -3 -7
-1 -3 5 8 13 -152 264 -164 257 -5 -3 -12 0 -16 6 -4 8 -3 9 4 5 7 -4 12 -5
12 -2 0 11 -43 77 -47 72 -3 -2 3 -17 13 -33 17 -27 17 -28 -1 -11 -11 10 -19
30 -20 45 0 16 -6 27 -13 26 -7 -2 -11 3 -9 10 1 9 -36 13 -155 15 -87 1 -158
0 -158 -3z m1113 -12 c-7 -2 -19 -2 -25 0 -7 3 -2 5 12 5 14 0 19 -2 13 -5z
m20 -24 c-10 -17 -25 -36 -33 -42 -8 -7 -4 2 8 20 12 17 22 36 22 42 0 6 5 11
11 11 5 0 2 -14 -8 -31z m-300 -44 c-3 -9 -8 -14 -10 -11 -3 3 -2 9 2 15 9 16
15 13 8 -4z m-703 -84 c0 -10 -49 53 -50 63 0 6 11 -5 25 -24 14 -19 25 -36
25 -39z m930 19 c-6 -11 -13 -20 -16 -20 -2 0 0 9 6 20 6 11 13 20 16 20 2 0
0 -9 -6 -20z m-606 -85 c9 -14 13 -25 8 -25 -5 0 -14 11 -20 25 -6 14 -10 25
-8 25 2 0 11 -11 20 -25z m60 -105 c-6 -5 -24 21 -24 34 0 6 6 1 14 -10 8 -10
12 -21 10 -24z m126 -40 c-6 -11 -13 -20 -16 -20 -2 0 0 9 6 20 6 11 13 20 16
20 2 0 0 -9 -6 -20z m251 -23 c-10 -9 -11 -8 -5 6 3 10 9 15 12 12 3 -3 0 -11
-7 -18z m-481 -197 c6 -11 8 -20 6 -20 -3 0 -10 9 -16 20 -6 11 -8 20 -6 20 3
0 10 -9 16 -20z m495 -306 c9 -15 12 -23 6 -20 -11 7 -35 46 -28 46 3 0 12
-12 22 -26z m84 -134 c11 -24 11 -24 -3 -6 -9 11 -16 24 -16 30 0 12 5 7 19
-24z m-558 -16 c-11 -15 -21 -24 -21 -20 0 10 34 55 39 51 2 -2 -6 -16 -18
-31z"/>
<path d="M6645 5310 c0 -338 1 -477 2 -307 2 169 2 445 0 615 -1 169 -2 30 -2
-308z"/>
<path d="M4554 5808 l-29 -33 33 29 c30 28 37 36 29 36 -2 0 -16 -15 -33 -32z"/>
<path d="M7817 5823 c-4 -3 -7 -11 -7 -17 0 -6 5 -5 12 2 6 6 9 14 7 17 -3 3
-9 2 -12 -2z"/>
<path d="M6883 5750 c0 -41 2 -58 4 -37 2 20 2 54 0 75 -2 20 -4 3 -4 -38z"/>
<path d="M5290 5806 c0 -2 8 -10 18 -17 15 -13 16 -12 3 4 -13 16 -21 21 -21
13z"/>
<path d="M5080 5676 c0 -2 8 -10 18 -17 15 -13 16 -12 3 4 -13 16 -21 21 -21
13z"/>
<path d="M2236 5605 c4 -8 11 -15 16 -15 6 0 5 6 -2 15 -7 8 -14 15 -16 15 -2
0 -1 -7 2 -15z"/>
<path d="M4452 5565 c0 -16 2 -22 5 -12 2 9 2 23 0 30 -3 6 -5 -1 -5 -18z"/>
<path d="M4745 5500 c10 -11 20 -20 23 -20 3 0 -3 9 -13 20 -10 11 -20 20 -23
20 -3 0 3 -9 13 -20z"/>
<path d="M5674 5478 l-29 -33 33 29 c30 28 37 36 29 36 -2 0 -16 -15 -33 -32z"/>
<path d="M6350 5507 c0 -2 15 -16 33 -33 l32 -29 -29 33 c-28 30 -36 37 -36
29z"/>
<path d="M6881 5434 c0 -11 3 -14 6 -6 3 7 2 16 -1 19 -3 4 -6 -2 -5 -13z"/>
<path d="M6881 5354 c0 -11 3 -14 6 -6 3 7 2 16 -1 19 -3 4 -6 -2 -5 -13z"/>
<path d="M5854 5328 l-29 -33 33 29 c30 28 37 36 29 36 -2 0 -16 -15 -33 -32z"/>
<path d="M1656 5318 c-28 -26 -49 -87 -25 -73 11 6 11 5 2 -5 -13 -14 -8 -36
15 -62 13 -16 37 -18 223 -18 l208 0 20 26 c30 38 28 98 -4 129 -24 25 -25 25
-219 25 -188 0 -196 -1 -220 -22z m212 5 c-32 -2 -86 -2 -120 0 -35 2 -9 3 57
3 66 0 94 -1 63 -3z m89 1 c-3 -3 -12 -4 -19 -1 -8 3 -5 6 6 6 11 1 17 -2 13
-5z m86 -1 c-7 -2 -19 -2 -25 0 -7 3 -2 5 12 5 14 0 19 -2 13 -5z m-363 -6 c0
-2 -10 -12 -21 -23 -22 -19 -22 -19 -10 4 10 18 31 31 31 19z m420 -28 c0 -6
-4 -7 -10 -4 -5 3 -10 11 -10 16 0 6 5 7 10 4 6 -3 10 -11 10 -16z m-8 -101
c-7 -7 -12 -8 -12 -2 0 14 12 26 19 19 2 -3 -1 -11 -7 -17z m-256 -11 l159 -3
-161 -2 c-144 -2 -163 0 -175 16 -12 15 -12 16 2 5 10 -8 69 -13 175 -16z"/>
<path d="M6882 5290 c0 -14 2 -19 5 -12 2 6 2 18 0 25 -3 6 -5 1 -5 -13z"/>
<path d="M5325 5250 c21 -22 41 -40 44 -40 3 0 -13 18 -34 40 -21 22 -41 40
-44 40 -3 0 13 -18 34 -40z"/>
<path d="M5782 5140 c0 -19 2 -27 5 -17 2 9 2 25 0 35 -3 9 -5 1 -5 -18z"/>
<path d="M6881 5104 c0 -11 3 -14 6 -6 3 7 2 16 -1 19 -3 4 -6 -2 -5 -13z"/>
<path d="M5422 5020 c0 -19 2 -27 5 -17 2 9 2 25 0 35 -3 9 -5 1 -5 -18z"/>
<path d="M6882 5030 c0 -14 2 -19 5 -12 2 6 2 18 0 25 -3 6 -5 1 -5 -13z"/>
<path d="M4405 5030 c-3 -6 1 -7 9 -4 18 7 21 14 7 14 -6 0 -13 -4 -16 -10z"/>
<path d="M6883 4885 c0 -38 2 -53 4 -32 2 20 2 52 0 70 -2 17 -4 1 -4 -38z"/>
<path d="M6184 4908 l-29 -33 33 29 c17 17 32 31 32 33 0 8 -8 1 -36 -29z"/>
<path d="M6028 4843 c7 -3 16 -2 19 1 4 3 -2 6 -13 5 -11 0 -14 -3 -6 -6z"/>
<path d="M4520 4765 c19 -19 36 -35 39 -35 3 0 -10 16 -29 35 -19 19 -36 35
-39 35 -3 0 10 -16 29 -35z"/>
<path d="M5660 4777 c0 -2 15 -16 33 -33 l32 -29 -29 33 c-28 30 -36 37 -36
29z"/>
<path d="M6344 4738 l-19 -23 23 19 c12 11 22 21 22 23 0 8 -8 2 -26 -19z"/>
<path d="M6881 4734 c0 -11 3 -14 6 -6 3 7 2 16 -1 19 -3 4 -6 -2 -5 -13z"/>
<path d="M6698 4653 c34 -2 90 -2 125 0 34 2 6 3 -63 3 -69 0 -97 -1 -62 -3z"/>
<path d="M2705 4497 c-11 -9 -15 -19 -10 -27 5 -9 4 -11 -3 -6 -20 12 -23 -33
-20 -233 3 -189 3 -193 27 -212 32 -26 104 -26 131 1 19 19 20 33 20 234 l0
215 -26 20 c-31 24 -91 28 -119 8z m-18 -345 c-1 -53 -3 -7 -3 103 0 110 2
154 3 97 2 -57 2 -147 0 -200z m150 266 c-3 -7 -5 -2 -5 12 0 14 2 19 5 13 2
-7 2 -19 0 -25z m0 -280 c-1 -51 -3 -12 -3 87 0 99 2 141 3 93 2 -48 2 -129 0
-180z m-97 -121 c13 -5 13 -6 -1 -6 -9 -1 -24 9 -35 22 -19 22 -19 22 1 6 11
-9 27 -19 35 -22z m80 8 c-7 -8 -22 -14 -34 -14 -20 1 -20 2 -1 6 11 3 24 9
30 14 15 14 19 10 5 -6z"/>
<path d="M7713 4443 l-33 -4 0 -290 0 -289 24 0 c13 0 38 -3 55 -6 l31 -7 -2
299 c-3 335 4 307 -75 297z m-8 -293 c0 -154 -3 -280 -7 -280 -5 0 -8 126 -8
280 0 154 3 280 8 280 4 0 7 -126 7 -280z m75 265 c0 -8 -2 -15 -4 -15 -2 0
-6 7 -10 15 -3 8 -1 15 4 15 6 0 10 -7 10 -15z m-33 -541 c-3 -3 -12 -4 -19
-1 -8 3 -5 6 6 6 11 1 17 -2 13 -5z m33 -4 c0 -5 -5 -10 -11 -10 -5 0 -7 5 -4
10 3 6 8 10 11 10 2 0 4 -4 4 -10z"/>
<path d="M6458 4403 c-27 -4 -28 -7 -28 -59 0 -53 0 -54 -29 -54 -37 0 -44
-10 -35 -55 5 -30 10 -35 35 -35 l29 0 0 -129 c0 -71 4 -141 10 -155 14 -38
66 -66 122 -66 70 0 78 6 78 56 0 42 -1 44 -27 42 -16 -1 -38 2 -50 6 -22 7
-23 12 -23 127 l0 119 50 0 50 0 0 45 0 45 -50 0 -50 0 0 60 c0 66 1 65 -82
53z m15 -20 c-7 -2 -19 -2 -25 0 -7 3 -2 5 12 5 14 0 19 -2 13 -5z m154 -165
c-3 -8 -6 -5 -6 6 -1 11 2 17 5 13 3 -3 4 -12 1 -19z m-2 -288 c-3 -5 -14 -10
-23 -10 -15 0 -15 2 -2 10 20 13 33 13 25 0z m-150 -21 c-10 -15 29 -32 88
-39 58 -7 59 -7 16 -9 -25 0 -59 4 -75 9 -33 12 -62 47 -38 47 7 0 11 -4 9 -8z"/>
<path d="M6875 4303 c-56 -12 -90 -28 -121 -56 -69 -60 -96 -155 -70 -240 29
-95 93 -150 191 -161 38 -4 44 -3 25 4 -20 8 -17 9 18 5 50 -6 104 14 146 53
88 83 88 251 0 334 -46 43 -138 73 -189 61z m2 -19 c-3 -3 -12 -4 -19 -1 -8 3
-5 6 6 6 11 1 17 -2 13 -5z m118 -8 c70 -30 30 -24 -55 7 -12 4 -11 6 3 6 10
1 33 -6 52 -13z m-200 -18 c-11 -6 -29 -18 -40 -27 -12 -9 -8 -4 7 12 16 15
34 27 41 27 6 0 3 -6 -8 -12z m270 -28 c10 -11 16 -20 13 -20 -3 0 -13 9 -23
20 -10 11 -16 20 -13 20 3 0 13 -9 23 -20z m-83 -32 c13 -13 17 -18 8 -11 -8
7 -27 16 -40 22 -17 6 -19 10 -8 10 9 1 27 -9 40 -21z m-37 -2 c51 -22 77 -69
72 -134 -3 -40 -10 -59 -30 -80 -15 -16 -24 -31 -21 -35 9 -8 -41 -27 -69 -26
-13 1 -5 5 17 10 55 13 54 16 -1 15 -27 0 -57 3 -67 8 -15 7 -17 6 -11 -4 5
-9 4 -11 -4 -6 -6 4 -9 11 -7 15 3 4 -4 20 -15 37 -30 45 -26 124 8 164 42 50
73 59 128 36z m-225 -16 c-6 -11 -13 -20 -16 -20 -2 0 0 9 6 20 6 11 13 20 16
20 2 0 0 -9 -6 -20z m110 17 c0 -2 -9 -12 -20 -22 -24 -21 -27 -14 -4 9 15 15
24 20 24 13z m-49 -83 c-5 -16 -10 -21 -10 -12 -1 18 10 51 15 45 2 -1 -1 -16
-5 -33z m336 -76 c-2 -18 -4 -6 -4 27 0 33 2 48 4 33 2 -15 2 -42 0 -60z m-80
25 c-3 -10 -5 -2 -5 17 0 19 2 27 5 18 2 -10 2 -26 0 -35z m-350 0 c-3 -10 -5
-4 -5 12 0 17 2 24 5 18 2 -7 2 -21 0 -30z m90 -15 c-3 -8 -6 -5 -6 6 -1 11 2
17 5 13 3 -3 4 -12 1 -19z m-10 -143 c14 -9 41 -23 61 -31 32 -12 33 -13 7 -8
-62 12 -135 80 -135 125 0 8 9 -5 21 -28 11 -23 32 -49 46 -58z m324 47 c-10
-18 -51 -59 -51 -50 0 6 53 67 58 68 1 0 -2 -8 -7 -18z m-75 -67 c-11 -8 -25
-15 -30 -15 -6 1 0 7 14 15 32 19 40 18 16 0z m-49 -21 c-3 -3 -12 -4 -19 -1
-8 3 -5 6 6 6 11 1 17 -2 13 -5z"/>
<path d="M7315 4288 c-48 -17 -83 -46 -109 -91 -32 -56 -40 -114 -26 -183 10
-47 20 -65 60 -104 38 -39 57 -50 102 -59 86 -18 164 4 218 61 48 51 77 146
50 163 -5 3 -9 21 -9 38 l1 32 8 -30 c7 -28 8 -28 9 -5 1 29 -31 104 -50 115
-8 6 -10 4 -4 -5 5 -8 4 -11 -3 -6 -6 4 -9 13 -6 20 3 9 -13 23 -47 40 -57 28
-137 34 -194 14z m128 -5 c-7 -2 -19 -2 -25 0 -7 3 -2 5 12 5 14 0 19 -2 13
-5z m-156 -33 c-26 -16 -56 -44 -67 -62 -11 -18 -20 -28 -20 -23 0 27 94 115
123 115 6 0 -10 -13 -36 -30z m248 0 c3 -5 1 -10 -4 -10 -6 0 -11 5 -11 10 0
6 2 10 4 10 3 0 8 -4 11 -10z m-210 -60 c-3 -5 -2 -10 4 -10 5 0 13 5 16 10 3
6 26 10 50 10 33 0 51 -7 76 -27 18 -16 35 -27 38 -25 3 2 7 -2 9 -10 3 -10 2
-10 -5 0 -6 7 -8 -10 -5 -46 5 -71 -14 -114 -60 -138 -38 -20 -92 -13 -122 15
-12 11 -25 21 -31 23 -11 4 -14 167 -3 174 4 3 5 -3 1 -13 -4 -14 -3 -15 6 -7
7 6 14 20 16 30 5 25 4 24 11 24 3 0 2 -4 -1 -10z m-128 -62 c-3 -8 -6 -5 -6
6 -1 11 2 17 5 13 3 -3 4 -12 1 -19z m330 -75 c-2 -16 -4 -5 -4 22 0 28 2 40
4 28 2 -13 2 -35 0 -50z m-340 25 c-3 -7 -5 -2 -5 12 0 14 2 19 5 13 2 -7 2
-19 0 -25z m420 -55 c-3 -10 -5 -2 -5 17 0 19 2 27 5 18 2 -10 2 -26 0 -35z
m-410 -25 c-3 -7 -5 -2 -5 12 0 14 2 19 5 13 2 -7 2 -19 0 -25z m393 -28 c-6
-11 -13 -20 -16 -20 -2 0 0 9 6 20 6 11 13 20 16 20 2 0 0 -9 -6 -20z m-246
-100 c49 -15 53 -18 21 -14 -48 7 -122 50 -144 84 -11 17 -4 14 23 -13 26 -24
61 -44 100 -57z m191 35 c-22 -19 -47 -34 -55 -34 -10 0 -8 3 5 9 11 5 34 20
50 34 17 14 32 25 35 25 3 0 -13 -15 -35 -34z m-122 18 c-7 -2 -21 -2 -30 0
-10 3 -4 5 12 5 17 0 24 -2 18 -5z"/>
<path d="M7945 4283 c-45 -23 -66 -45 -60 -60 2 -8 1 -12 -4 -9 -11 7 -21 -17
-21 -50 0 -70 73 -126 166 -128 29 0 47 -4 40 -8 -6 -5 -2 -8 11 -8 34 0 47
-33 24 -61 -14 -18 -29 -24 -61 -24 -35 0 -47 6 -71 33 -27 30 -31 32 -70 23
-22 -5 -43 -12 -47 -16 -3 -3 2 -22 13 -41 21 -40 89 -84 126 -83 23 0 23 1 4
10 -17 8 -17 9 5 4 14 -2 34 -5 45 -6 17 -1 16 -2 -5 -10 -18 -6 -10 -7 25 -3
58 7 91 22 123 57 46 49 38 147 -14 182 -13 8 -60 24 -106 34 -88 21 -114 40
-97 72 12 23 70 35 97 20 30 -16 40 -13 18 4 -11 8 -15 15 -10 15 6 0 23 -15
40 -32 16 -18 19 -24 7 -14 -13 11 -23 14 -23 9 0 -23 30 -35 70 -28 33 6 40
11 40 30 0 13 -5 27 -10 30 -7 4 -8 -3 -4 -22 4 -15 3 -25 -1 -21 -4 4 -8 21
-9 39 -1 18 -8 35 -15 37 -9 3 -11 0 -6 -8 5 -9 4 -11 -4 -6 -6 4 -9 12 -5 17
10 16 -63 39 -123 39 -33 -1 -71 -8 -88 -17z m143 0 c-10 -2 -28 -2 -40 0 -13
2 -5 4 17 4 22 1 32 -1 23 -4z m-148 -23 c-14 -11 -29 -20 -35 -20 -5 0 4 9
20 20 38 25 48 25 15 0z m-63 -92 c-3 -8 -6 -5 -6 6 -1 11 2 17 5 13 3 -3 4
-12 1 -19z m28 -68 l20 -25 -22 19 c-13 11 -23 24 -23 29 0 6 1 8 3 6 1 -2 11
-15 22 -29z m132 14 c-3 -3 -12 -4 -19 -1 -8 3 -5 6 6 6 11 1 17 -2 13 -5z
m161 -79 c-3 -3 -9 2 -12 12 -6 14 -5 15 5 6 7 -7 10 -15 7 -18z m2 -92 c-11
-17 -11 -17 -6 0 3 10 7 33 8 50 l1 32 4 -32 c2 -18 -1 -41 -7 -50z m-250 -62
c17 -6 19 -10 8 -10 -9 -1 -27 9 -40 22 -13 12 -17 17 -8 10 8 -7 27 -16 40
-22z m240 35 c0 -2 -8 -10 -17 -17 -16 -13 -17 -12 -4 4 13 16 21 21 21 13z
m-45 -36 c-3 -5 -12 -10 -18 -10 -7 0 -6 4 3 10 19 12 23 12 15 0z m-38 -16
c-3 -3 -12 -4 -19 -1 -8 3 -5 6 6 6 11 1 17 -2 13 -5z"/>
<path d="M6220 3960 c-11 -11 -20 -31 -20 -45 0 -25 31 -65 51 -65 6 0 25 9
42 21 l32 21 -24 -21 c-13 -12 -18 -21 -12 -21 20 0 51 39 51 65 0 34 -33 65
-70 65 -17 0 -39 -9 -50 -20z m94 -9 c10 -11 16 -28 13 -38 -4 -15 -5 -15 -6
3 -1 26 -17 40 -51 47 l-25 4 26 2 c14 0 34 -8 43 -18z m-74 5 c0 -2 -8 -10
-17 -17 -16 -13 -17 -12 -4 4 13 16 21 21 21 13z m15 -94 c-6 -6 -34 11 -39
24 -4 11 0 10 18 -3 13 -10 23 -19 21 -21z"/>
</g>
</svg>
