<?xml version="1.0" encoding="UTF-8"?>
<svg id="a" xmlns="http://www.w3.org/2000/svg" viewBox="0 0 1128 191">
    <g>
        <path
            d="M45.07,103.98c-3.95,1.04-7.77,2.42-11.43,4.07-8.71,3.96-16.52,9.56-23.03,16.42-1.26-6.19-1.91-12.59-1.91-19.14,0-31.73,15.43-59.85,39.2-77.27-.95,1.3-22.52,31.8-2.82,75.92Z"
            fill="#2875e5" />
        <path
            d="M153.21,22.85c-21.42,4.06-39.55,17.4-50.06,35.67l-.34,.58c-20.64-34.69-53.97-31.2-54.86-31.1,15.85-11.61,35.39-18.46,56.53-18.46,17.8,0,34.45,4.85,48.72,13.31Z"
            fill="#61a1ff" />
        <path
            d="M153.21,170.55L10.61,124.46c6.51-6.85,14.32-12.46,23.03-16.42,3.66-1.66,7.48-3.03,11.43-4.07l108.14,66.57Z"
            fill="#cbd1d8" />
        <path
            d="M153.21,22.85V170.55L102.81,59.1c.11-.19,.22-.39,.34-.58,10.51-18.27,28.64-31.61,50.06-35.67Z"
            fill="#f7f7f7" />
        <path
            d="M153.21,170.55L45.07,103.98c.86-2.09,1.82-4.13,2.87-6.11,10.69-20.38,30.64-35.13,54.27-38.67,.19-.03,.4-.06,.6-.09l50.4,111.45Z"
            fill="#dfe3e8" />
        <path
            d="M102.81,59.1l-.6,.09c-23.63,3.54-43.58,18.29-54.27,38.67-1.05,1.98-2.01,4.02-2.87,6.11-19.69-44.13,1.88-74.62,2.82-75.92,0,0,0-.02,0-.02l.02-.02s.02,0,.03,0c.89-.11,34.22-3.59,54.86,31.1Z"
            fill="#3e83ff" />
        <path d="M47.95,28.01s-.02,0-.03,0h.03Z" fill="#fff" />
    </g>
    <path
        d="M197.85,102.42h30.62c9.55,0,17.22-2.61,23.01-7.82s8.69-12.45,8.69-21.71c0-9.84-2.86-17.26-8.58-22.26-5.72-4.99-13.35-7.49-22.91-7.49h-30.83l3.91-4.99V170.61l-21.71-7.2V22.73h52.33c10.13,0,18.96,2.25,26.49,6.73,7.52,4.49,13.39,10.5,17.59,18.02,4.2,7.53,6.3,16,6.3,25.41s-2.1,17.7-6.3,25.3c-4.2,7.6-10.1,13.61-17.7,18.02-7.6,4.42-16.47,6.62-26.6,6.62h-34.31v-20.41Z"
        fill="#fff" />
    <path
        d="M336.17,173.64c-8.25,0-15.35-1.45-21.28-4.34-5.94-2.89-10.46-7.06-13.57-12.49-3.12-5.43-4.67-11.91-4.67-19.43,0-6.95,1.59-13.14,4.78-18.57,3.18-5.43,7.74-9.73,13.68-12.92,5.93-3.18,12.95-4.78,21.06-4.78,10.13,0,18.27,2.28,24.43,6.84,6.15,4.56,10.46,10.82,12.92,18.78h-12.16v-27.14c0-4.48-1.52-8.61-4.56-12.38-3.04-3.76-8.4-5.65-16.07-5.65-4.05,0-8.51,.47-13.35,1.41-4.85,.94-9.88,2.57-15.09,4.89l-6.51-16.72c5.93-2.9,12.08-5.07,18.46-6.51,6.37-1.45,12.59-2.17,18.67-2.17,9.12,0,16.64,1.67,22.58,4.99,5.93,3.33,10.35,7.78,13.25,13.35,2.89,5.58,4.34,11.84,4.34,18.78v71.01h-15.64l-5.43-19.33,11.51-3.26c-2.61,8.54-7.24,14.95-13.9,19.22-6.66,4.27-14.48,6.4-23.45,6.4Zm3.91-19.33c6.37,0,11.51-1.48,15.42-4.45,3.91-2.97,5.86-7.13,5.86-12.49s-1.95-9.7-5.86-12.6c-3.91-2.89-9.05-4.34-15.42-4.34s-11.51,1.45-15.41,4.34c-3.91,2.9-5.86,7.09-5.86,12.6s1.95,9.52,5.86,12.49c3.91,2.97,9.04,4.45,15.41,4.45Z"
        fill="#fff" />
    <path
        d="M426.5,64.64l5.21,28.66v77.3h-21.71V64.64h16.5Zm1.95,37.56l-5.21-2.39v-15.85l1.95-2.39c1.45-2.61,3.73-5.39,6.84-8.36,3.11-2.97,6.76-5.5,10.96-7.6,4.2-2.1,8.47-3.15,12.81-3.15,2.17,0,4.24,.14,6.19,.43,1.95,.29,3.44,.8,4.45,1.52v19.54h-6.73c-9.85,0-17.01,1.48-21.5,4.45-4.49,2.97-7.74,7.57-9.77,13.79Z"
        fill="#fff" />
    <path
        d="M517.91,173.64c-8.25,0-15.35-1.45-21.28-4.34-5.94-2.89-10.46-7.06-13.57-12.49-3.12-5.43-4.67-11.91-4.67-19.43,0-6.95,1.59-13.14,4.78-18.57,3.18-5.43,7.74-9.73,13.68-12.92,5.93-3.18,12.95-4.78,21.06-4.78,10.13,0,18.27,2.28,24.43,6.84,6.15,4.56,10.46,10.82,12.92,18.78h-12.16v-27.14c0-4.48-1.52-8.61-4.56-12.38-3.04-3.76-8.4-5.65-16.07-5.65-4.05,0-8.51,.47-13.35,1.41-4.85,.94-9.88,2.57-15.09,4.89l-6.51-16.72c5.93-2.9,12.08-5.07,18.46-6.51,6.37-1.45,12.59-2.17,18.67-2.17,9.12,0,16.64,1.67,22.58,4.99,5.93,3.33,10.35,7.78,13.25,13.35,2.89,5.58,4.34,11.84,4.34,18.78v71.01h-15.64l-5.43-19.33,11.51-3.26c-2.61,8.54-7.24,14.95-13.9,19.22-6.66,4.27-14.48,6.4-23.45,6.4Zm3.91-19.33c6.37,0,11.51-1.48,15.42-4.45,3.91-2.97,5.86-7.13,5.86-12.49s-1.95-9.7-5.86-12.6c-3.91-2.89-9.05-4.34-15.42-4.34s-11.51,1.45-15.41,4.34c-3.91,2.9-5.86,7.09-5.86,12.6s1.95,9.52,5.86,12.49c3.91,2.97,9.04,4.45,15.41,4.45Z"
        fill="#fff" />
    <path
        d="M638.43,172.78c-10.86,0-20.27-2.35-28.23-7.06-7.96-4.7-14.11-11.18-18.46-19.44-4.34-8.25-6.51-17.8-6.51-28.66s2.17-20.41,6.51-28.66c4.34-8.25,10.5-14.73,18.46-19.43s17.37-7.06,28.23-7.06c10.28,0,19.62,2.79,28.01,8.36,8.39,5.58,14.47,12.99,18.24,22.26l-20.63,8.69c-2.32-6.08-5.79-10.67-10.42-13.79-4.63-3.11-9.92-4.67-15.85-4.67-8.69,0-15.93,3.01-21.71,9.01-5.79,6.01-8.69,14.44-8.69,25.3s2.9,19.29,8.69,25.3c5.79,6.01,13.03,9.01,21.71,9.01,5.93,0,11.22-1.55,15.85-4.67,4.63-3.11,8.11-7.71,10.42-13.79l20.63,8.69c-3.91,9.27-10.03,16.69-18.35,22.26-8.33,5.58-17.63,8.36-27.9,8.36Z"
        fill="#fff" />
    <path
        d="M702.26,163.43V22.73h21.71V170.61l-21.71-7.18Zm71.01,7.18V102.86c0-7.52-1.7-12.59-5.1-15.2-3.4-2.6-7.42-3.91-12.05-3.91s-9.34,.94-14.11,2.82c-4.78,1.88-9.05,4.42-12.81,7.6-3.77,3.19-6.66,6.73-8.69,10.64l-2.61-20.85c4.05-4.63,8.47-8.54,13.25-11.73,4.78-3.18,9.84-5.61,15.2-7.27,5.35-1.66,10.86-2.5,16.5-2.5,7.52,0,13.46,1.27,17.8,3.8,4.34,2.53,7.53,5.94,9.55,10.2,2.03,4.27,3.33,9.09,3.91,14.44,.58,5.36,.87,10.86,.87,16.5v63.19h-21.71Z"
        fill="#fff" />
    <path
        d="M855.35,172.78c-7.96,0-14.26-1.27-18.89-3.8-4.64-2.53-8.04-5.93-10.21-10.21-2.17-4.27-3.58-9.08-4.24-14.44-.65-5.35-.98-10.86-.98-16.5v-63.19h21.71v67.75c0,7.53,1.7,12.6,5.1,15.2,3.4,2.61,7.42,3.91,12.05,3.91s9.52-.94,14.22-2.82c4.7-1.88,8.97-4.45,12.81-7.71,3.83-3.26,6.69-6.77,8.58-10.53v12.16h-3.47V64.64h21.71v105.96h-16.5l-4.56-18.67,5.43-.65c-3.77,4.49-7.96,8.36-12.6,11.62-4.63,3.26-9.48,5.72-14.55,7.38-5.07,1.66-10.28,2.5-15.64,2.5Z"
        fill="#fff" />
    <path
        d="M934.17,84.62v-19.98h60.58v19.98h-60.58Zm46.47,87.94c-9.27,0-16.61-2.71-22.04-8.14-5.43-5.43-8.14-13.86-8.14-25.3V64.64l4.13-23.89h17.59v98.8c0,4.05,1.05,7.09,3.15,9.12,2.1,2.03,4.74,3.04,7.93,3.04,2.46,0,4.63-.14,6.51-.43,1.88-.29,3.55-.65,4.99-1.09v20.19c-1.88,.58-3.94,1.09-6.19,1.52-2.25,.43-4.89,.65-7.93,.65Z"
        fill="#fff" />
    <path
        d="M1064.89,172.78c-10.28,0-19.33-2.28-27.14-6.84-7.82-4.56-13.9-10.97-18.24-19.22-4.34-8.25-6.51-17.88-6.51-28.88s2.17-20.85,6.51-29.1c4.34-8.25,10.42-14.69,18.24-19.33,7.82-4.63,16.86-6.95,27.14-6.95s19.54,2.32,27.36,6.95c7.82,4.63,13.9,11.07,18.24,19.33,4.34,8.25,6.51,17.95,6.51,29.1,0,1.01-.04,2.06-.11,3.15-.08,1.09-.18,2.06-.33,2.93h-82.95v-18.67h67.31l-6.08,12.6c0-11-2.47-20.05-7.39-27.14-4.92-7.09-12.45-10.64-22.58-10.64-8.98,0-16.14,2.86-21.5,8.58-5.36,5.72-8.04,13.21-8.04,22.47v11.29c0,9.7,2.61,17.41,7.82,23.13,5.21,5.72,12.45,8.58,21.71,8.58,8.54,0,15.13-1.81,19.76-5.43,4.63-3.62,8.69-8.11,12.16-13.46l16.29,10.2c-4.92,9.12-11.26,15.96-19,20.52-7.75,4.56-17.48,6.84-29.21,6.84Z"
        fill="#fff" />
</svg>