<?xml version="1.0" standalone="no"?>
<!DOCTYPE svg PUBLIC "-//W3C//DTD SVG 20010904//EN"
 "http://www.w3.org/TR/2001/REC-SVG-20010904/DTD/svg10.dtd">
<svg version="1.0" xmlns="http://www.w3.org/2000/svg"
 width="1024.000000pt" height="1024.000000pt" viewBox="0 0 1024.000000 1024.000000"
 preserveAspectRatio="xMidYMid meet">

<g transform="translate(0.000000,1024.000000) scale(0.100000,-0.100000)"
fill="#3E83FF" stroke="none">
<path d="M5050 7615 c-46 -21 -68 -42 -91 -87 -18 -35 -19 -64 -19 -440 0
-399 0 -404 23 -448 39 -79 118 -113 204 -90 57 17 109 67 123 121 8 28 10
167 8 433 -3 361 -4 394 -22 429 -38 76 -149 116 -226 82z"/>
<path d="M3460 7254 c-44 -19 -325 -296 -351 -346 -25 -48 -24 -99 2 -151 14
-27 286 -307 780 -802 l758 -760 -784 -785 c-853 -855 -820 -817 -796 -906 9
-33 52 -81 256 -285 134 -134 257 -249 272 -256 35 -15 93 -16 129 -3 15 6
378 361 807 788 428 427 779 778 781 779 1 2 330 -326 732 -728 589 -590 736
-732 767 -741 71 -21 95 -5 293 189 194 191 205 208 184 284 -7 23 -211 232
-742 760 l-732 728 244 242 245 242 86 -12 c47 -6 120 -11 160 -11 387 0 744
268 851 637 20 67 23 100 22 243 0 149 -3 172 -25 240 l-25 75 -255 -251
c-140 -139 -264 -255 -277 -259 -44 -13 -158 -6 -223 15 -128 39 -223 134
-268 268 -25 75 -28 186 -5 240 10 24 99 121 251 274 130 131 234 240 231 243
-15 15 -215 57 -298 62 -111 7 -215 -11 -344 -58 -196 -71 -384 -249 -471
-444 -51 -116 -69 -215 -67 -370 1 -77 3 -152 4 -166 3 -23 -34 -65 -246 -278
-275 -279 -243 -258 -306 -201 -10 8 -348 344 -753 747 -404 403 -750 741
-768 752 -40 25 -71 26 -119 5z"/>
<path d="M2715 5291 c-48 -22 -79 -54 -100 -103 -41 -99 18 -217 123 -248 25
-8 166 -10 428 -8 l390 3 41 27 c72 48 104 158 69 241 -17 42 -66 83 -114 97
-22 6 -186 10 -417 10 -348 0 -383 -2 -420 -19z"/>
<path d="M5057 3695 c-47 -16 -81 -46 -101 -90 -23 -47 -24 -834 -2 -886 42
-99 148 -136 246 -86 89 45 85 22 88 500 2 279 0 434 -8 459 -13 44 -66 93
-117 107 -48 14 -59 13 -106 -4z"/>
</g>
</svg>
